<?xml version="1.0" standalone="no"?>
<!DOCTYPE svg PUBLIC "-//W3C//DTD SVG 20010904//EN"
 "http://www.w3.org/TR/2001/REC-SVG-20010904/DTD/svg10.dtd">
<svg version="1.0" xmlns="http://www.w3.org/2000/svg"
 width="180.000000pt" height="180.000000pt" viewBox="0 0 180.000000 180.000000"
 preserveAspectRatio="xMidYMid meet">

<g transform="translate(0.000000,180.000000) scale(0.100000,-0.100000)"
fill="#000000" stroke="none">
<path d="M920 1730 c0 -24 -20 -26 -62 -4 -29 15 -32 15 -43 0 -8 -10 -27 -16
-53 -16 -22 0 -44 -4 -47 -10 -3 -5 -23 -10 -45 -10 -24 0 -40 -5 -44 -15 -3
-8 -24 -18 -46 -21 -23 -4 -45 -14 -50 -24 -14 -25 -68 -46 -83 -31 -13 13
-57 15 -57 2 0 -5 -10 -13 -22 -17 -13 -3 -42 -19 -66 -35 -24 -16 -51 -29
-61 -29 -37 0 -78 -63 -90 -137 -15 -88 -24 -102 -51 -85 -26 16 -50 15 -50
-1 0 -7 11 -29 26 -48 l25 -34 -25 -3 c-33 -4 -35 -38 -4 -48 20 -6 20 -8 5
-19 -19 -14 -22 -40 -7 -50 6 -4 31 7 57 24 51 34 63 37 63 18 0 -7 -15 -21
-33 -30 -21 -12 -42 -35 -55 -63 -28 -56 -28 -68 -1 -61 l21 6 -21 -23 c-19
-21 -30 -76 -14 -76 4 0 18 10 32 23 l26 22 -22 -26 c-23 -25 -31 -59 -15 -59
5 0 6 -14 4 -31 -4 -29 -3 -30 16 -20 11 6 30 23 42 38 17 23 16 19 -4 -18
-14 -25 -26 -61 -26 -79 l0 -33 25 23 c25 23 25 23 25 2 0 -11 -5 -32 -11 -46
-7 -14 -9 -32 -5 -42 6 -16 8 -16 25 0 21 19 42 3 22 -17 -13 -13 -15 -77 -2
-77 5 0 19 12 30 28 l20 27 1 -32 c0 -17 -5 -33 -11 -35 -23 -8 2 -47 56 -88
29 -23 66 -58 81 -77 23 -31 29 -34 34 -19 5 15 10 12 30 -18 26 -38 50 -47
50 -20 0 12 8 9 34 -13 19 -15 35 -34 35 -41 1 -7 17 -20 37 -28 36 -15 36
-16 15 -30 -15 -11 -21 -26 -21 -55 0 -44 7 -47 43 -19 20 16 40 20 106 20 46
0 91 -5 104 -12 12 -7 23 -14 25 -15 2 -1 -1 -10 -7 -22 -8 -14 -8 -22 0 -26
15 -10 49 25 49 51 0 29 18 41 27 17 4 -10 11 -21 17 -25 16 -11 86 -9 86 2 0
6 11 10 25 10 21 0 25 5 25 28 l1 27 18 -22 c25 -29 61 -31 61 -3 0 12 -8 33
-17 48 l-18 27 33 -27 c19 -16 42 -28 53 -28 10 0 19 -4 19 -10 0 -5 14 -10
30 -10 23 0 30 4 30 20 0 15 -7 20 -27 20 -18 1 -40 13 -63 36 l-35 35 41 -7
c26 -4 44 -2 48 5 4 6 16 11 27 11 10 0 19 4 19 8 0 4 16 6 35 4 27 -3 35 -1
35 11 0 9 -4 18 -10 22 -5 3 -7 12 -3 20 3 10 20 15 50 15 37 0 44 3 41 17 -2
12 -16 20 -43 23 l-40 6 40 12 c22 6 55 12 73 12 21 0 32 5 32 14 0 16 -21 26
-58 26 -26 1 -26 1 8 20 19 11 50 19 68 20 25 0 32 4 32 19 0 25 -33 36 -60
21 -12 -7 -24 -10 -26 -7 -3 2 25 17 61 33 45 20 65 34 65 46 0 10 -7 18 -15
18 -8 0 -15 7 -15 15 0 8 3 15 8 15 4 0 22 10 41 21 l35 21 -24 18 -23 18 26
25 c30 27 36 57 12 57 -22 0 -18 38 5 50 11 6 20 17 20 25 0 18 -41 20 -58 3
-28 -28 -10 13 23 52 19 23 35 44 35 47 0 3 -13 3 -30 1 -16 -3 -30 -1 -30 4
0 4 15 8 33 8 41 0 57 15 51 49 -4 19 1 32 15 45 30 27 27 52 -7 59 -26 5 -29
10 -29 49 -1 24 -5 66 -10 93 -5 30 -5 62 0 82 6 17 7 39 4 47 -6 15 -9 15
-32 0 l-25 -16 0 51 c0 53 -8 62 -31 35 -12 -15 -15 -13 -25 22 -15 52 -44 59
-44 10 0 -19 -4 -37 -9 -40 -10 -7 -41 70 -41 102 0 12 -4 22 -8 22 -16 0 -32
-25 -32 -50 0 -21 -5 -25 -28 -25 -22 0 -28 4 -24 17 2 9 -5 30 -17 47 -12 16
-21 36 -21 45 0 9 -8 16 -20 16 -16 0 -20 -7 -20 -37 0 -36 0 -36 -21 -17 -11
10 -28 31 -37 46 -19 32 -30 35 -48 11 -12 -17 -15 -16 -46 15 -37 34 -58 41
-58 17 0 -20 -8 -19 -48 5 -39 24 -42 24 -42 5 0 -20 -19 -19 -58 5 -40 25
-42 25 -42 0z m93 -44 c15 -3 27 -12 27 -18 0 -7 12 -25 27 -40 21 -22 23 -28
10 -28 -21 0 -103 55 -122 83 -22 31 -18 42 8 25 12 -8 34 -18 50 -22z m117
-46 c7 -19 20 -44 29 -54 15 -18 15 -18 -7 -7 -31 16 -89 76 -106 109 l-15 28
43 -20 c32 -16 47 -30 56 -56z m-251 55 c22 -8 41 -11 42 -7 0 4 4 -2 9 -14 4
-12 28 -31 52 -43 l43 -23 -40 7 c-45 7 -110 42 -139 74 -23 25 -21 25 33 6z
m342 -90 c1 -11 3 -30 4 -43 l2 -23 -24 23 c-28 25 -67 90 -78 127 -6 21 -1
18 44 -20 28 -24 52 -53 52 -64z m-406 63 l17 -23 -7 25 c-5 21 -4 22 5 7 6
-9 29 -26 52 -38 22 -11 38 -22 36 -24 -13 -14 -178 51 -178 70 0 3 13 5 29 5
19 0 36 -8 46 -22z m480 -62 c25 -21 27 -26 12 -32 -15 -5 -15 -8 -1 -21 18
-18 10 -31 -9 -15 -9 8 -17 8 -24 1 -13 -13 -43 68 -43 115 l0 31 18 -27 c10
-15 31 -38 47 -52z m-499 19 l39 -15 -55 4 c-30 2 -73 12 -94 23 l-39 18 44 5
c29 4 48 1 55 -7 6 -7 29 -20 50 -28z m586 -35 c6 0 5 -6 -2 -15 -17 -20 -2
-38 25 -31 25 6 41 -7 30 -24 -8 -14 -54 6 -82 36 -17 19 -23 36 -23 72 l1 47
21 -42 c11 -24 25 -43 30 -43z m-727 41 c3 -5 19 -12 35 -16 17 -4 30 -11 30
-17 0 -14 -105 -4 -146 13 l-29 12 35 7 c53 11 68 11 75 1z m857 -148 c20 -25
37 -14 40 25 3 36 3 36 16 14 14 -25 8 -62 -11 -62 -7 0 -18 -9 -25 -20 -7
-11 -22 -20 -35 -19 l-22 1 23 6 c13 4 24 11 24 16 1 13 -25 46 -38 46 -22 0
-33 66 -17 106 4 12 11 -1 21 -42 8 -32 19 -65 24 -71z m-923 104 c48 -15 37
-28 -22 -26 -27 0 -29 2 -12 9 20 9 20 9 0 9 -12 1 -26 -4 -32 -10 -6 -6 -21
-8 -34 -4 -22 7 -21 8 11 20 19 7 37 13 40 14 3 0 25 -5 49 -12z m-132 -18
c34 -16 40 -23 30 -34 -10 -11 -13 -10 -18 3 -4 11 -8 12 -13 4 -4 -7 -12 -10
-17 -7 -5 4 -14 -5 -20 -18 -7 -16 -19 -24 -35 -24 -20 0 -22 3 -17 31 8 41
12 45 29 22 7 -11 17 -17 20 -13 4 3 -1 13 -10 22 -15 15 -14 35 1 35 4 0 26
-9 50 -21z m483 -11 c-14 -5 -46 -8 -72 -5 -26 2 -51 1 -55 -4 -4 -4 -26 -10
-48 -13 -22 -4 -44 -11 -49 -16 -6 -6 -21 -10 -35 -9 -16 0 -20 3 -11 6 8 3
29 11 45 18 49 20 106 30 180 32 55 1 65 -1 45 -9z m63 -5 c-7 -2 -19 -2 -25
0 -7 3 -2 5 12 5 14 0 19 -2 13 -5z m67 -3 c0 -5 -8 -10 -17 -10 -15 0 -16 2
-3 10 19 12 20 12 20 0z m-744 -33 c-26 -34 -32 -57 -19 -70 3 -4 12 -2 20 4
10 9 13 8 13 -5 0 -9 6 -16 13 -17 8 0 8 -2 -2 -6 -10 -4 -10 -7 -1 -13 8 -5
2 -17 -19 -38 -19 -19 -29 -36 -25 -46 3 -9 1 -16 -4 -16 -24 0 -17 -46 10
-73 28 -27 37 -57 18 -57 -5 0 -10 5 -10 10 0 6 -8 10 -17 10 -16 0 -16 2 -3
11 8 6 11 12 5 15 -28 12 -36 24 -44 70 -6 32 -6 53 0 59 7 7 8 3 4 -10 -4
-11 1 -8 10 7 8 15 25 32 36 39 11 6 18 13 15 16 -3 3 -12 1 -20 -6 -11 -9
-16 -6 -25 20 -6 17 -8 36 -4 42 4 6 0 8 -11 4 -25 -10 -4 24 35 57 43 36 55
33 25 -7z m274 28 c0 -2 -14 -12 -30 -20 -31 -16 -52 -31 -98 -72 -14 -13 -27
-23 -29 -23 -7 0 16 37 31 50 9 7 16 19 16 27 0 9 6 13 14 10 8 -3 31 3 52 14
41 21 44 21 44 14z m410 -20 c19 -5 40 -15 46 -23 8 -11 21 -13 50 -9 29 5 34
4 22 -4 -10 -5 -18 -19 -18 -30 0 -18 5 -19 53 -13 l52 6 -32 -21 c-45 -29
-43 -49 5 -47 23 0 48 -7 64 -19 31 -22 35 -35 13 -35 -8 0 -15 -7 -15 -15 0
-9 10 -15 26 -15 17 0 28 -6 31 -20 6 -21 28 -27 38 -10 8 13 52 13 60 0 3 -5
2 -18 -4 -28 -11 -21 1 -48 18 -38 7 5 11 -1 11 -13 0 -12 4 -21 9 -21 12 0
18 -17 26 -75 l8 -47 -32 7 c-23 5 -31 3 -31 -7 0 -24 15 -37 55 -50 38 -12
40 -16 43 -56 3 -37 6 -42 23 -37 13 4 19 2 19 -9 0 -9 -8 -16 -19 -16 -21 0
-31 -19 -31 -57 0 -37 -77 -206 -106 -234 -16 -15 -22 -29 -18 -43 4 -15 3
-17 -4 -8 -8 11 -10 11 -15 -1 -3 -9 -13 -13 -24 -11 -14 4 -23 -3 -32 -23 -8
-16 -16 -23 -18 -15 -7 18 -22 15 -45 -10 -13 -16 -21 -19 -24 -10 -9 21 -30
13 -43 -15 -13 -28 -13 -28 8 -9 12 11 21 15 21 9 0 -20 -46 -75 -80 -96 l-35
-20 37 39 c28 29 36 45 32 62 -8 29 -22 28 -56 -5 -22 -21 -28 -23 -28 -10 0
21 -23 22 -55 1 -24 -16 -25 -15 -25 5 0 24 -17 27 -44 6 -11 -8 -31 -15 -44
-15 -20 0 -22 3 -13 14 19 22 0 27 -97 25 -50 -1 -98 3 -110 10 -30 16 -73 14
-94 -6 -18 -16 -22 -14 -84 48 -75 73 -128 150 -139 200 -4 19 -14 42 -23 52
-14 15 -14 17 1 17 18 0 23 25 7 35 -5 3 -14 14 -20 24 -8 16 -6 17 15 13 29
-5 32 8 10 42 -15 23 -15 23 10 19 29 -6 35 16 10 37 -12 10 -13 15 -4 21 17
10 2 42 -16 35 -12 -4 -15 4 -15 39 0 42 2 45 26 45 25 0 26 -2 21 -35 -6 -35
-2 -40 27 -29 21 8 22 92 0 122 -15 21 -14 22 18 22 38 0 58 15 58 42 0 16 -5
18 -33 13 -24 -5 -37 -2 -47 9 -11 14 -10 16 4 10 9 -4 37 1 62 11 39 15 45
20 42 44 -2 15 4 33 15 44 12 12 17 27 13 41 -4 17 2 28 27 46 43 33 105 63
158 79 24 7 55 16 69 21 28 10 156 6 210 -5z m145 -5 c4 -6 -7 -10 -25 -10
-18 0 -29 4 -25 10 3 6 15 10 25 10 10 0 22 -4 25 -10z m-905 -18 c0 -4 -6
-16 -13 -27 -8 -11 -17 -29 -21 -39 -5 -16 -4 -17 9 -6 9 8 15 8 15 2 0 -6 -4
-14 -10 -17 -20 -12 -10 -27 16 -22 23 4 24 3 10 -11 -13 -13 -17 -13 -32 -1
-13 11 -18 11 -21 1 -3 -6 -8 -10 -13 -7 -14 9 2 89 23 113 21 22 37 29 37 14z
m1378 -33 c1 -22 4 -45 7 -49 3 -5 1 -11 -5 -15 -16 -10 -12 -45 5 -45 9 0 15
9 15 23 0 13 9 32 20 42 25 23 25 19 -1 -35 -14 -29 -18 -45 -10 -48 12 -4 16
-42 4 -42 -3 0 -21 11 -40 26 -26 19 -32 30 -27 48 3 14 -1 27 -10 35 -14 12
-14 16 1 45 14 29 33 56 38 56 1 0 2 -18 3 -41z m-1002 18 c-10 -7 -41 -29
-68 -50 -39 -31 -48 -42 -42 -59 7 -24 -10 -38 -46 -37 -22 1 -21 2 8 10 17 5
32 14 32 20 0 6 -8 6 -21 -2 -31 -16 -48 4 -23 28 16 17 17 17 11 1 -3 -10 -2
-18 4 -18 6 0 13 8 16 18 4 18 68 69 112 89 33 15 42 15 17 0z m765 -3 c27 -9
52 -20 55 -25 2 -5 -14 -2 -37 6 -23 8 -54 15 -70 15 -15 0 -31 5 -34 10 -9
15 30 12 86 -6z m-173 -6 c8 -10 -1 -13 -38 -13 -48 0 -55 8 -15 18 34 8 42 7
53 -5z m200 -28 c57 -26 54 -32 -5 -10 -27 9 -55 20 -63 23 -11 4 -9 6 5 6 11
0 39 -8 63 -19z m-116 -51 c29 -28 30 -29 4 -10 -18 14 -45 21 -75 22 -38 1
-42 2 -21 9 44 14 59 11 92 -21z m112 25 c9 -3 16 -10 16 -15 0 -14 -26 -10
-40 6 -13 16 -3 20 24 9z m88 -42 c-38 -19 -37 -36 2 -40 18 -2 26 0 21 7 -8
13 5 14 24 2 12 -8 8 -11 -15 -16 -16 -4 -35 -8 -41 -11 -16 -4 -17 -36 -1
-52 8 -8 9 -12 1 -12 -15 0 -43 28 -43 44 0 6 6 18 12 24 10 10 10 15 0 21
-11 6 -7 13 14 30 14 11 34 21 43 20 9 0 1 -8 -17 -17z m-1135 -20 c-10 -10
-17 -24 -17 -30 0 -7 -4 -12 -10 -12 -5 0 -10 3 -10 8 0 14 31 52 42 52 6 0 4
-8 -5 -18z m41 -3 c-10 -5 -18 -18 -19 -27 0 -11 -2 -12 -6 -4 -6 15 14 42 31
42 6 0 3 -5 -6 -11z m1012 -24 c-10 -12 -10 -15 1 -15 10 -1 9 -3 -3 -10 -17
-11 -53 -9 -64 3 -4 4 8 13 27 21 44 19 54 20 39 1z m-916 -31 c8 -20 11 -17
-42 -37 -40 -16 -43 -16 -62 3 -22 22 -28 49 -7 33 14 -12 45 -9 60 6 16 16
44 13 51 -5z m-280 -41 c-24 -32 -51 -42 -84 -32 l-25 7 27 1 c15 1 30 6 33
11 4 6 10 8 15 5 5 -3 17 5 27 19 10 13 20 22 22 20 3 -2 -4 -16 -15 -31z
m-90 -5 c-8 -13 -20 -9 -45 11 l-24 19 37 -11 c20 -6 34 -15 32 -19z m1491 5
c11 -6 16 -15 12 -19 -4 -4 -13 -2 -19 4 -7 7 -22 12 -35 12 -13 0 -23 4 -23
9 0 13 40 9 65 -6z m63 -29 c0 -17 -3 -22 -8 -13 -5 6 -6 18 -3 26 8 19 11 16
11 -13z m-1318 1 c5 3 19 -4 31 -16 16 -16 28 -20 51 -15 26 5 29 4 18 -9 -7
-8 -23 -15 -35 -15 -26 0 -85 45 -84 63 0 8 2 8 6 -1 2 -6 9 -10 13 -7z m1090
1 c0 -2 -11 -6 -25 -8 -13 -3 -22 -1 -19 3 5 9 44 13 44 5z m-1240 -21 c0 -21
-95 -84 -108 -71 -3 3 8 10 23 16 15 6 36 22 47 35 17 22 38 33 38 20z m-90
-26 c0 -14 -21 -21 -46 -15 -35 9 -29 21 11 22 19 0 35 -3 35 -7z m140 7 c0
-2 -7 -7 -16 -10 -8 -3 -12 -2 -9 4 6 10 25 14 25 6z m1212 -4 c-8 -5 -10 -16
-6 -27 6 -16 4 -15 -14 3 -28 28 -28 32 6 32 18 0 23 -3 14 -8z m192 -28 c5
-14 4 -15 -9 -4 -17 14 -19 20 -6 20 5 0 12 -7 15 -16z m-83 -52 c6 -20 15
-41 19 -45 10 -11 -14 -115 -30 -130 -8 -9 -9 1 -3 43 11 78 8 122 -12 161
-16 29 -16 32 -2 21 9 -8 21 -30 28 -50z m-1344 16 c-3 -7 -5 -2 -5 12 0 14 2
19 5 13 2 -7 2 -19 0 -25z m1455 10 c-7 -7 -12 -8 -12 -2 0 14 12 26 19 19 2
-3 -1 -11 -7 -17z m38 8 c0 -3 -4 -8 -10 -11 -5 -3 -10 -1 -10 4 0 6 5 11 10
11 6 0 10 -2 10 -4z m-1471 -85 c-12 -23 -28 -41 -35 -41 -12 0 -30 68 -20 78
3 3 6 -4 6 -15 0 -27 41 -23 53 5 6 12 12 20 15 18 2 -3 -6 -23 -19 -45z m52
18 c-9 -22 -10 -22 -10 -3 -1 11 2 24 6 27 12 12 14 0 4 -24z m-136 -29 c-3
-6 -10 -10 -16 -10 -10 0 -12 33 -2 44 9 9 26 -22 18 -34z m1315 14 c0 -14 -4
-23 -9 -20 -5 3 -7 15 -4 26 7 28 13 25 13 -6z m-55 -24 c3 -5 1 -10 -4 -10
-6 0 -11 5 -11 10 0 6 2 10 4 10 3 0 8 -4 11 -10z m220 0 c3 -5 -1 -10 -9 -10
-9 0 -16 5 -16 10 0 6 4 10 9 10 6 0 13 -4 16 -10z m-115 -16 c0 -2 -9 -4 -20
-4 -11 0 -20 4 -20 9 0 5 9 7 20 4 11 -3 20 -7 20 -9z m-1420 -3 c0 -5 -7 -12
-16 -15 -14 -5 -15 -4 -4 9 14 17 20 19 20 6z m124 -45 c-6 -16 -24 -23 -24
-8 0 10 22 33 27 28 2 -2 1 -11 -3 -20z m17 -40 c-20 -45 -38 -60 -38 -31 0 8
4 15 9 15 4 0 15 16 23 37 8 20 18 34 21 30 3 -3 -3 -26 -15 -51z m1382 39
c-3 -9 -8 -14 -10 -11 -3 3 -2 9 2 15 9 16 15 13 8 -4z m-1443 -45 c0 -5 -5
-10 -11 -10 -5 0 -7 5 -4 10 3 6 8 10 11 10 2 0 4 -4 4 -10z m-30 -14 c0 -3
-15 -14 -32 -26 l-33 -22 28 26 c27 25 37 31 37 22z m1462 -50 c-22 -23 -43
-53 -47 -65 -4 -13 -9 -20 -12 -18 -13 14 67 127 90 127 5 0 -9 -20 -31 -44z
m-1347 -6 c4 -12 16 -30 28 -40 11 -11 16 -20 10 -20 -7 0 -23 15 -37 33 -17
21 -26 27 -26 16 0 -20 -26 -44 -34 -31 -6 11 30 62 44 62 5 0 12 -9 15 -20z
m-152 -25 c-3 -9 -8 -14 -10 -11 -3 3 -2 9 2 15 9 16 15 13 8 -4z m142 -74
c-7 -43 -35 -59 -35 -20 0 19 31 71 38 64 2 -2 1 -22 -3 -44z m1360 26 c-37
-27 -53 -44 -83 -82 l-23 -30 16 32 c20 43 81 103 103 103 12 -1 9 -7 -13 -23z
m-1418 -19 c-3 -8 -6 -5 -6 6 -1 11 2 17 5 13 3 -3 4 -12 1 -19z m1275 -20
c-8 -8 -9 -4 -5 13 4 13 8 18 11 10 2 -7 -1 -18 -6 -23z m-1181 5 c13 -16 12
-17 -3 -4 -17 13 -22 21 -14 21 2 0 10 -8 17 -17z m-11 -63 c0 -52 -13 -67
-24 -27 -4 18 12 77 21 77 2 0 3 -22 3 -50z m1310 4 c-25 -14 -62 -42 -83 -62
l-37 -37 4 38 c3 20 10 45 15 55 14 23 14 -3 1 -29 -7 -13 8 -6 46 21 32 22
67 40 78 40 15 0 8 -8 -24 -26z m-1363 -36 c-2 -13 -4 -5 -4 17 -1 22 1 32 4
23 2 -10 2 -28 0 -40z m1223 22 c-6 -11 -12 -20 -14 -20 -2 0 -2 9 1 20 3 11
9 20 15 20 5 0 4 -9 -2 -20z m-1083 -74 c9 -17 46 -62 82 -100 49 -52 56 -62
26 -39 -22 17 -50 42 -61 55 -31 34 -100 145 -80 129 10 -8 24 -28 33 -45z
m1056 29 c-3 -9 -8 -14 -10 -11 -3 3 -2 9 2 15 9 16 15 13 8 -4z m161 -14 c3
-5 -9 -11 -26 -15 -18 -4 -50 -18 -70 -31 -40 -27 -73 -33 -64 -12 3 6 9 20
12 30 4 9 10 17 15 17 12 0 11 -17 -1 -25 -5 -3 -10 -11 -10 -16 0 -6 13 -1
29 11 28 19 88 49 103 50 4 0 9 -4 12 -9z m-1312 -51 c-6 -43 -12 -37 -12 13
0 25 4 37 8 29 5 -7 7 -26 4 -42z m47 -23 c5 -19 5 -40 1 -47 -4 -7 -9 5 -13
27 -3 21 -8 47 -12 58 -6 15 -5 17 4 9 7 -6 16 -27 20 -47z m1081 39 c0 -2 -8
-10 -17 -17 -16 -13 -17 -12 -4 4 13 16 21 21 21 13z m-4 -51 c-11 -8 -25 -15
-30 -15 -6 1 0 7 14 15 32 19 40 18 16 0z m-998 -73 c18 -20 40 -49 48 -64 8
-16 20 -28 28 -28 7 0 21 -10 32 -22 l19 -22 -27 17 c-15 9 -33 17 -40 17 -8
0 -24 20 -38 45 -26 48 -45 60 -36 23 6 -24 -29 49 -45 92 l-9 25 18 -23 c9
-13 32 -40 50 -60z m1142 68 c11 -7 6 -10 -20 -10 -19 0 -52 -9 -73 -20 -20
-11 -47 -20 -59 -20 -12 0 -29 -7 -39 -16 -9 -8 -28 -14 -41 -12 -19 4 -15 8
26 27 27 12 55 20 62 17 6 -2 22 2 34 11 40 28 87 38 110 23z m-259 -66 c-23
-38 -26 -48 -12 -40 5 3 28 7 52 10 24 2 68 9 97 16 35 8 57 9 64 2 8 -8 -61
-22 -134 -26 -16 0 -28 -4 -28 -8 0 -3 -20 -6 -44 -6 -51 0 -52 8 -7 57 34 40
37 39 12 -5z m-596 -26 c6 0 19 3 30 7 l20 8 -20 -16 c-11 -9 -26 -17 -32 -17
-7 0 -13 -5 -13 -10 0 -7 -7 -7 -21 0 -11 7 -23 9 -26 6 -3 -3 6 -11 21 -17
14 -7 26 -16 26 -21 0 -15 -27 -8 -45 12 -10 11 -29 20 -42 20 -16 0 -23 6
-23 20 0 30 38 41 80 23 19 -9 40 -15 45 -15z m536 3 c-12 -21 -51 -48 -51
-34 0 8 53 60 58 57 2 -1 -1 -12 -7 -23z m-127 -33 c-9 -18 -25 -39 -36 -46
-10 -8 -26 -22 -36 -31 -22 -23 -60 -38 -44 -18 7 8 9 16 6 20 -3 3 6 13 21
23 50 33 5 31 -62 -3 -78 -39 -82 -39 -133 -13 -22 11 -52 20 -67 21 -25 0
-26 1 -8 9 17 7 17 9 3 9 -10 1 -18 6 -18 11 0 6 18 1 40 -10 60 -31 118 -26
203 16 39 20 66 30 60 23 -18 -19 -16 -29 6 -29 11 0 32 13 48 29 35 36 40 33
17 -11z m-294 12 c65 -24 90 -25 116 -5 28 21 40 18 19 -5 -10 -11 -36 -25
-57 -31 -35 -9 -46 -7 -99 19 -34 17 -55 32 -47 35 7 3 13 6 13 6 0 1 25 -8
55 -19z m-227 -69 l19 -36 -23 24 c-12 13 -36 29 -53 37 l-31 13 35 -1 c30 -1
38 -7 53 -37z m685 28 c-2 -6 -7 -10 -11 -10 -4 1 -24 1 -44 2 -31 0 -34 2
-18 9 29 12 77 12 73 -1z m165 4 c3 -5 -26 -8 -63 -8 -37 0 -66 3 -63 8 2 4
31 7 63 7 32 0 61 -3 63 -7z m-723 -23 c0 -5 -2 -10 -4 -10 -3 0 -8 5 -11 10
-3 6 -1 10 4 10 6 0 11 -4 11 -10z m630 -31 c9 -6 -11 -7 -50 -3 -91 9 -120
23 -35 17 39 -3 77 -10 85 -14z m-565 0 c-16 -6 -12 -8 17 -8 20 -1 40 -5 43
-11 3 -5 21 -10 38 -10 24 0 28 -3 17 -10 -8 -5 -32 -7 -52 -3 -31 4 -38 2
-38 -11 0 -9 7 -16 15 -16 8 0 15 -4 15 -10 0 -5 -9 -10 -21 -10 -13 0 -23 10
-31 31 -6 17 -24 39 -41 49 l-30 19 44 -1 c32 0 39 -3 24 -9z m394 -8 c9 -6
-3 -11 -38 -16 -29 -4 -55 -4 -58 -1 -4 3 0 6 8 7 8 0 6 4 -6 9 -15 6 -7 9 30
9 28 0 56 -3 64 -8z m-508 -30 c24 -20 24 -20 2 -14 -12 3 -28 11 -34 19 -17
21 5 17 32 -5z m399 -21 c-20 -13 -43 -13 -35 0 3 6 16 10 28 10 18 0 19 -2 7
-10z m-126 -20 c-6 -6 -28 -13 -50 -15 l-39 -5 45 14 c25 7 47 14 50 15 2 0
-1 -4 -6 -9z m-179 -20 c3 -5 1 -10 -4 -10 -6 0 -11 5 -11 10 0 6 2 10 4 10 3
0 8 -4 11 -10z m313 -16 c-21 -21 -29 -24 -44 -15 -18 10 -18 10 2 11 11 0 29
7 40 15 30 23 31 18 2 -11z m-347 -8 c19 5 21 4 9 -5 -8 -6 -27 -8 -42 -5 -15
3 -37 0 -50 -6 -22 -11 -22 -10 2 9 17 13 29 17 41 11 8 -5 27 -7 40 -4z m255
-16 c15 -6 24 -13 22 -16 -3 -3 -21 2 -39 10 -39 16 -24 21 17 6z m29 -50 c3
-5 2 -10 -4 -10 -5 0 -13 5 -16 10 -3 6 -2 10 4 10 5 0 13 -4 16 -10z"/>
<path d="M235 1050 c-3 -5 -1 -10 4 -10 6 0 11 5 11 10 0 6 -2 10 -4 10 -3 0
-8 -4 -11 -10z"/>
</g>
</svg>
