<?xml version="1.0" standalone="no"?>
<!DOCTYPE svg PUBLIC "-//W3C//DTD SVG 20010904//EN"
 "http://www.w3.org/TR/2001/REC-SVG-20010904/DTD/svg10.dtd">
<svg version="1.0" xmlns="http://www.w3.org/2000/svg"
 width="180.000000pt" height="180.000000pt" viewBox="0 0 180.000000 180.000000"
 preserveAspectRatio="xMidYMid meet">

<g transform="translate(0.000000,180.000000) scale(0.100000,-0.100000)"
fill="#000000" stroke="none">
<path d="M895 1690 c-5 -9 -4 -11 3 -6 7 4 14 -3 18 -19 3 -14 10 -25 15 -25
14 0 10 13 -10 39 -14 18 -20 21 -26 11z"/>
<path d="M855 1630 c-10 -12 -25 -18 -33 -15 -9 3 -12 -1 -8 -13 5 -15 -3 -20
-54 -30 -93 -20 -227 -92 -308 -167 -64 -60 -103 -83 -86 -52 3 6 -7 -1 -23
-18 -16 -16 -28 -31 -27 -33 1 -2 16 4 32 12 l30 16 -34 -51 c-19 -28 -34 -55
-34 -60 0 -5 -7 -9 -16 -9 -9 0 -12 -5 -8 -12 4 -7 3 -8 -4 -4 -9 5 -9 13 -2
27 6 11 15 17 21 14 5 -4 9 1 9 9 0 8 -9 18 -20 21 -11 4 -18 11 -15 16 4 5 2
9 -3 9 -18 0 -21 -14 -6 -31 14 -16 14 -20 -1 -48 -9 -18 -13 -36 -10 -41 3
-6 1 -10 -5 -10 -7 0 -9 -7 -6 -16 4 -10 2 -13 -6 -8 -7 5 -9 0 -6 -14 4 -14
2 -20 -5 -15 -6 4 -8 -2 -5 -15 4 -12 2 -22 -4 -22 -6 0 -8 -9 -5 -20 3 -11 1
-18 -4 -14 -5 3 -9 -10 -9 -28 0 -18 -7 -46 -15 -61 l-14 -28 34 21 c19 12 39
19 45 15 5 -3 10 -2 10 3 0 4 16 16 35 25 42 20 45 20 45 7 0 -16 -135 -79
-163 -76 -15 2 -27 -1 -27 -6 0 -5 -4 -6 -10 -3 -5 3 -10 3 -10 -2 0 -4 13
-16 30 -25 16 -9 31 -27 34 -40 2 -13 9 -51 15 -85 6 -34 24 -95 40 -135 27
-68 36 -110 22 -105 -3 1 -7 -3 -8 -8 -2 -6 10 -14 26 -20 15 -5 68 -51 117
-101 73 -75 104 -98 175 -133 48 -24 127 -53 175 -66 85 -21 90 -24 119 -68
l31 -45 26 46 c26 47 27 47 110 64 51 11 119 35 178 64 81 40 108 60 185 138
50 51 105 98 123 105 37 15 38 19 15 36 -15 12 -14 18 14 81 29 67 46 125 58
211 5 33 13 47 36 60 16 10 29 20 29 23 0 9 -40 31 -48 26 -5 -3 -9 11 -10 29
-4 52 -37 173 -65 237 -22 48 -23 59 -11 69 18 14 9 30 -13 22 -12 -5 -14 -3
-8 6 6 10 2 11 -15 6 -17 -5 -21 -4 -15 5 5 9 4 11 -3 6 -8 -4 -8 -15 -2 -31
14 -37 -1 -30 -34 16 -26 38 -27 40 -7 29 33 -17 37 -5 8 24 -14 14 -23 26
-21 29 2 2 -18 23 -44 48 l-47 44 40 -42 c21 -24 35 -43 30 -43 -5 0 -4 -5 3
-12 7 -7 12 -16 12 -21 0 -5 -31 20 -70 56 -77 72 -180 130 -285 162 -53 17
-69 26 -67 39 2 11 -4 16 -21 16 -13 0 -27 3 -30 7 -4 3 -19 7 -33 8 -22 1
-31 -9 -62 -70 -20 -38 -38 -73 -40 -77 -2 -3 3 -8 10 -11 7 -2 5 -3 -4 -2
-10 2 -20 -5 -23 -15 -3 -10 -12 -24 -20 -30 -22 -18 6 56 55 147 22 40 38 73
36 73 -2 0 -11 -9 -21 -20z m85 -25 c0 -8 4 -15 8 -15 5 0 9 -7 9 -15 0 -22
-5 -19 -22 15 -9 17 -11 30 -5 30 5 0 10 -7 10 -15z m-28 -53 c-2 -7 1 -12 8
-10 7 2 15 -3 18 -11 3 -8 0 -11 -7 -7 -6 4 -11 2 -11 -3 0 -6 3 -11 8 -11 4
0 18 -10 32 -21 20 -16 21 -18 4 -10 -12 6 -25 7 -29 3 -5 -4 -5 -2 -2 4 4 7
-6 11 -28 11 -19 0 -32 -4 -29 -9 3 -4 -2 -5 -10 -2 -18 7 -11 24 10 24 8 0
14 5 14 10 0 6 -4 10 -9 10 -5 0 -1 16 7 35 13 29 18 32 23 18 3 -10 4 -24 1
-31z m83 -52 c14 -27 23 -50 20 -50 -2 0 -16 23 -30 50 -14 28 -23 50 -20 50
2 0 16 -22 30 -50z m70 9 c-4 -5 -1 -9 5 -9 6 0 13 7 16 15 4 8 11 15 16 15 6
0 5 -7 -2 -15 -11 -14 -10 -14 13 -6 15 6 28 7 31 3 3 -5 -8 -13 -25 -19 -16
-6 -29 -8 -29 -3 0 4 -7 7 -16 6 -9 0 -18 7 -19 17 -2 9 1 15 6 11 5 -3 7 -10
4 -15z m-352 -2 c3 -9 -4 -12 -28 -9 -26 3 -36 -1 -44 -16 -9 -17 -8 -21 7
-25 9 -2 7 -3 -5 -2 -13 1 -23 -2 -23 -7 0 -5 -9 -8 -20 -6 -27 4 -26 23 2 23
12 0 25 10 31 22 6 14 21 23 41 26 17 2 32 5 32 5 1 1 4 -4 7 -11z m32 -6 c3
-5 2 -12 -3 -15 -5 -3 -9 1 -9 9 0 17 3 19 12 6z m468 -51 c5 0 6 4 3 9 -4 5
4 7 16 3 l22 -5 -24 -9 c-14 -5 -27 -5 -33 1 -5 5 -15 8 -21 7 -6 -2 -8 -1 -3
1 4 3 7 9 7 14 0 6 -4 8 -8 5 -5 -3 -9 2 -9 11 0 12 6 9 22 -10 11 -15 24 -27
28 -27z m-513 30 c0 -5 -12 -10 -27 -9 -25 0 -26 1 -8 9 27 12 35 12 35 0z
m70 -10 c0 -5 -39 -28 -87 -51 -114 -54 -231 -168 -284 -276 -40 -81 -59 -88
-28 -11 63 160 209 288 397 347 1 1 2 -3 2 -9z m385 -35 c104 -50 242 -185
264 -260 5 -16 14 -45 20 -62 5 -18 8 -33 7 -33 -2 0 -18 29 -35 65 -57 115
-182 231 -308 285 -56 24 -73 47 -26 35 15 -3 50 -17 78 -30z m-607 4 c-10 -5
-18 -19 -18 -30 0 -36 -18 -58 -42 -52 -19 4 -20 3 -8 -6 18 -13 1 -15 -19 -2
-11 7 -9 10 8 16 11 3 25 3 31 0 5 -3 10 -1 10 4 0 6 -5 11 -11 11 -5 0 -7 5
-3 11 4 8 9 7 15 -2 6 -10 9 -7 9 12 0 26 16 49 35 49 5 0 2 -5 -7 -11z m712
-10 c12 -9 11 -10 -7 -6 -28 6 -31 -9 -3 -16 11 -3 20 -10 20 -17 0 -6 -13 -2
-31 11 -23 16 -28 24 -17 30 17 11 20 11 38 -2z m-671 -15 c-11 -13 -52 -7
-43 7 3 5 16 8 29 7 17 -2 21 -6 14 -14z m354 -338 c15 21 27 33 27 27 0 -12
-58 -85 -73 -91 -4 -2 -4 -9 0 -15 15 -25 -83 65 -109 100 l-27 36 24 19 c30
24 76 121 101 213 l19 70 5 -199 5 -199 28 39z m-73 324 c0 -5 -12 -12 -27
-16 -208 -46 -349 -180 -404 -384 -17 -62 -18 -63 -18 -24 -3 167 181 379 366
423 52 12 83 13 83 1z m165 -5 c118 -31 232 -119 293 -227 29 -51 68 -176 57
-186 -2 -3 -7 1 -9 9 -85 240 -194 346 -408 393 -31 7 -38 26 -10 26 10 0 44
-7 77 -15z m-475 1 c0 -3 -4 -8 -10 -11 -5 -3 -10 -1 -10 4 0 6 5 11 10 11 6
0 10 -2 10 -4z m743 -27 c25 3 31 0 17 -9 -18 -11 -40 5 -39 29 0 13 2 13 8
-2 4 -10 10 -18 14 -18z m-480 -51 c-10 -18 -19 -35 -20 -37 -1 -2 -20 4 -42
12 l-40 16 -3 -32 c-3 -30 -5 -32 -38 -30 -19 1 -27 -1 -17 -3 18 -6 22 -19 8
-28 -5 -4 -12 0 -14 6 -4 8 -8 4 -12 -9 -6 -18 -15 -23 -42 -23 -35 0 -35 0
-31 -42 3 -42 3 -43 -28 -42 -27 2 -32 -2 -30 -20 2 -12 8 -31 14 -43 11 -19
9 -24 -9 -33 -11 -7 -23 -9 -26 -7 -2 3 5 8 16 12 19 6 20 7 4 40 -13 28 -14
39 -5 60 6 14 17 25 24 24 10 0 10 -2 0 -6 -17 -7 -5 -23 17 -23 14 0 18 8 17
43 -1 40 0 42 30 45 26 3 33 8 38 33 4 21 11 29 28 30 22 0 22 1 3 9 -19 8
-19 9 2 9 12 1 24 7 27 14 3 6 4 0 2 -15 -2 -16 1 -28 5 -28 5 0 9 16 9 36 0
34 2 36 28 32 15 -3 35 -8 44 -12 12 -6 21 1 33 24 9 18 19 30 22 27 3 -3 -3
-21 -14 -39z m197 -12 c5 1 15 2 22 3 7 0 3 7 -8 15 -17 13 -14 13 21 1 32
-10 41 -19 45 -42 5 -25 9 -28 38 -25 28 3 32 0 31 -20 -1 -17 -3 -18 -6 -6
-3 13 -13 17 -36 15 -28 -2 -32 1 -37 28 -3 19 -11 31 -22 31 -10 1 -18 -1
-18 -5 0 -4 -10 -7 -23 -9 -16 -1 -28 7 -40 27 -24 40 -21 53 3 16 11 -16 24
-30 30 -29z m-562 8 c-4 -3 -12 5 -18 18 -12 22 -12 22 6 6 10 -10 15 -20 12
-24z m-38 -39 c-33 -19 -50 -18 -26 0 11 8 27 15 35 15 10 -1 7 -6 -9 -15z
m724 -6 c-29 -11 -34 -10 -28 5 3 8 13 12 27 8 20 -5 20 -6 1 -13z m274 5 c12
-8 22 -23 21 -32 0 -15 -1 -14 -8 2 -4 10 -18 24 -32 32 -13 7 -19 13 -14 14
6 0 21 -7 33 -16z m-598 -11 c0 -5 -26 -19 -57 -32 -65 -29 -140 -100 -167
-159 -11 -23 -23 -42 -27 -42 -5 0 -6 -7 -3 -15 4 -8 1 -15 -5 -15 -7 0 -9 -9
-5 -25 4 -15 2 -25 -4 -25 -6 0 -13 -8 -16 -17 -2 -10 -2 0 1 22 11 76 43 144
98 203 62 68 186 137 185 105z m235 -12 c84 -38 214 -186 188 -212 -7 -7 -14
0 -23 20 -6 17 -12 33 -11 36 2 13 -122 116 -168 140 -75 37 -63 51 14 16z
m-435 -26 c0 -8 -7 -15 -16 -15 -14 0 -14 3 -4 15 7 8 14 15 16 15 2 0 4 -7 4
-15z m590 -11 c0 -8 9 -14 20 -14 17 0 20 -6 18 -37 -1 -34 -2 -35 -5 -8 -3
20 -12 34 -26 40 -12 6 -23 18 -25 29 -3 11 0 16 7 12 6 -4 11 -14 11 -22z
m313 1 c-3 -9 -8 -14 -10 -11 -3 3 -2 9 2 15 9 16 15 13 8 -4z m-1153 -20 c-7
-8 -16 -15 -21 -15 -5 0 -1 8 9 18 20 22 31 19 12 -3z m825 -14 c-6 -5 -25 10
-25 20 0 5 6 4 14 -3 8 -7 12 -15 11 -17z m-252 4 c-3 -9 -8 -14 -10 -11 -3 3
-2 9 2 15 9 16 15 13 8 -4z m-393 -25 c0 -5 -5 -10 -11 -10 -5 0 -7 5 -4 10 3
6 8 10 11 10 2 0 4 -4 4 -10z m37 -12 c-3 -8 -6 -5 -6 6 -1 11 2 17 5 13 3 -3
4 -12 1 -19z m499 -44 c-8 -32 -68 -97 -133 -146 l-53 -39 -1 -62 c0 -42 -3
-55 -8 -42 -5 11 -7 23 -5 26 6 10 -26 20 -38 12 -6 -3 -8 -1 -5 4 4 6 0 16
-9 23 -12 11 -12 15 -2 21 10 7 10 9 -2 9 -9 0 -42 27 -74 59 l-58 59 7 53 c4
30 9 58 12 62 3 4 16 -15 30 -43 22 -44 102 -127 147 -152 18 -10 131 84 161
136 14 23 26 51 26 62 1 18 2 18 6 1 3 -10 2 -30 -1 -43z m-135 29 c13 -16 12
-17 -3 -4 -10 7 -18 15 -18 17 0 8 8 3 21 -13z m344 -23 c-3 -5 -16 -10 -28
-9 -20 1 -20 2 3 9 14 4 26 8 28 9 2 1 0 -3 -3 -9z m0 -57 c-9 -15 -13 -19
-10 -8 4 11 10 29 13 40 3 11 7 14 9 8 3 -7 -3 -24 -12 -40z m-808 -15 c-3 -8
-6 -5 -6 6 -1 11 2 17 5 13 3 -3 4 -12 1 -19z m243 -113 c63 -64 91 -107 90
-138 -1 -7 -8 2 -17 18 -8 17 -46 62 -84 101 -63 65 -89 106 -89 137 0 7 7 -1
16 -18 8 -16 46 -61 84 -100z m430 60 c-11 -19 -44 -55 -73 -81 -29 -25 -62
-62 -74 -82 -13 -21 -23 -30 -23 -22 0 26 35 74 103 139 37 35 70 73 73 85 4
12 9 16 11 9 3 -7 -5 -29 -17 -48z m92 23 c-7 -7 -12 -8 -12 -2 0 14 12 26 19
19 2 -3 -1 -11 -7 -17z m-776 -17 c-4 -5 6 -24 21 -43 l28 -33 -31 25 c-26 21
-32 35 -25 58 1 1 4 2 7 2 3 0 3 -4 0 -9z m794 -11 c0 -11 -4 -20 -9 -20 -5 0
-7 9 -4 20 3 11 7 20 9 20 2 0 4 -9 4 -20z m224 14 c9 -3 13 -11 9 -17 -4 -6
0 -8 11 -4 11 5 15 3 10 -5 -5 -8 -1 -9 12 -4 14 5 16 4 8 -4 -9 -9 -19 -8
-43 4 -39 21 -45 45 -7 30z m-857 -46 c-3 -8 -6 -5 -6 6 -1 11 2 17 5 13 3 -3
4 -12 1 -19z m681 -8 c-22 -30 -35 -41 -22 -17 9 16 36 47 41 47 2 0 -6 -13
-19 -30z m-640 -35 c-3 -3 -9 2 -12 12 -6 14 -5 15 5 6 7 -7 10 -15 7 -18z
m717 -5 c3 -5 1 -10 -4 -10 -6 0 -11 5 -11 10 0 6 2 10 4 10 3 0 8 -4 11 -10z
m-1125 -46 c0 -2 -9 0 -20 6 -11 6 -20 13 -20 16 0 2 9 0 20 -6 11 -6 20 -13
20 -16z m240 2 c0 -2 -8 -10 -17 -17 -16 -13 -17 -12 -4 4 13 16 21 21 21 13z
m227 -3 c-4 -3 -1 -13 5 -22 10 -13 10 -14 -2 -4 -11 10 -19 9 -39 -10 -21
-17 -20 -15 3 11 17 17 32 32 35 32 2 0 1 -3 -2 -7z m31 -68 c-3 -3 -9 2 -12
12 -6 14 -5 15 5 6 7 -7 10 -15 7 -18z m99 -7 c-3 -8 -6 -5 -6 6 -1 11 2 17 5
13 3 -3 4 -12 1 -19z m120 -20 c-3 -8 -6 -5 -6 6 -1 11 2 17 5 13 3 -3 4 -12
1 -19z m-87 -2 c0 -8 -4 -17 -8 -20 -5 -3 -10 -27 -11 -53 -1 -26 -5 -51 -10
-56 -11 -11 -40 4 -66 34 -17 20 -15 19 16 -4 20 -15 39 -27 42 -27 4 0 7 27
7 61 0 43 3 58 12 53 8 -5 9 -2 5 9 -3 10 -2 17 3 17 6 0 10 -6 10 -14z m310
-60 c0 -2 -8 -10 -17 -17 -16 -13 -17 -12 -4 4 13 16 21 21 21 13z m-200 -30
c0 -2 -8 -10 -17 -17 -16 -13 -17 -12 -4 4 13 16 21 21 21 13z m160 -20 c0 -2
-8 -10 -17 -17 -16 -13 -17 -12 -4 4 13 16 21 21 21 13z m-391 -82 c14 -12
-19 -1 -35 12 -18 14 -18 14 6 3 14 -6 27 -13 29 -15z m481 3 c0 -2 -12 -14
-27 -28 l-28 -24 24 28 c23 25 31 32 31 24z m50 -72 c-24 -25 -46 -45 -49 -45
-3 0 15 20 39 45 24 25 46 45 49 45 3 0 -15 -20 -39 -45z m-679 8 c13 -16 12
-17 -3 -4 -17 13 -22 21 -14 21 2 0 10 -8 17 -17z m559 3 c0 -2 -8 -10 -17
-17 -16 -13 -17 -12 -4 4 13 16 21 21 21 13z m-40 -31 c0 -6 -56 -35 -67 -35
-4 1 8 9 27 20 39 22 40 22 40 15z m260 -38 c0 -2 -17 -19 -37 -38 l-38 -34
34 38 c33 34 41 42 41 34z m-583 -23 c-3 -3 -12 -4 -19 -1 -8 3 -5 6 6 6 11 1
17 -2 13 -5z m180 0 c-3 -3 -12 -4 -19 -1 -8 3 -5 6 6 6 11 1 17 -2 13 -5z
m-84 -11 c-13 -2 -33 -2 -45 0 -13 2 -3 4 22 4 25 0 35 -2 23 -4z m-112 -70
c13 -16 12 -17 -3 -4 -10 7 -18 15 -18 17 0 8 8 3 21 -13z m185 -8 c-11 -8
-25 -15 -30 -15 -6 1 0 7 14 15 32 19 40 18 16 0z m-111 -25 c38 -25 30 -25
-20 0 -22 11 -33 20 -25 20 8 0 29 -9 45 -20z"/>
<path d="M896 1512 c-3 -5 1 -9 9 -9 8 0 12 4 9 9 -3 4 -7 8 -9 8 -2 0 -6 -4
-9 -8z"/>
<path d="M588 1453 c7 -3 16 -2 19 1 4 3 -2 6 -13 5 -11 0 -14 -3 -6 -6z"/>
<path d="M1035 1600 c-3 -5 -2 -10 4 -10 5 0 13 5 16 10 3 6 2 10 -4 10 -5 0
-13 -4 -16 -10z"/>
<path d="M1080 1589 c0 -5 5 -7 10 -4 6 3 10 8 10 11 0 2 -4 4 -10 4 -5 0 -10
-5 -10 -11z"/>
<path d="M479 1473 c-13 -16 -12 -17 4 -4 9 7 17 15 17 17 0 8 -8 3 -21 -13z"/>
<path d="M401 1406 c-19 -19 -28 -36 -23 -40 6 -3 13 -2 17 4 3 5 3 10 -1 10
-4 0 5 14 21 30 16 17 27 30 24 30 -3 0 -20 -15 -38 -34z"/>
</g>
</svg>
